PathFileType	4	(X/Y/Z)	/Users/itak/Documents/Research/Walk-IL/dataset/trc/00144_00007.trc
DataRate	CameraRate	NumFrames	NumMarkers	Units	OrigDataRate	OrigDataStartFrame	OrigNumFrames
100.000000	100.000000	4	53	mm	100.000000	256	512
Frame#	Time	RPSI			LPSI			L3			STRN			T10			C7			CLAV			RBAK			LBAK			LSHO			LUPA			LAEL			LAOL			LWTS			LWPS			LFRA			LIFD			LHPS			LHTS			RSHO			RUPA			RAEL			RAOL			RWTS			RWPS			RFRA			RIFD			RHTS			RHPS			RBHD			LFHD			RFHD			LBHD			LHIP			RHIP			RASI			LASI			LKNE			LTHI			LANK			LTIP			LTOE			LMT1			LMT5			LHEE			RKNE			RTHI			RANK			RTIP			RTOE			RMT1			RMT5			RHEE			
		X1	Y1	Z1	X2	Y2	Z2	X3	Y3	Z3	X4	Y4	Z4	X5	Y5	Z5	X6	Y6	Z6	X7	Y7	Z7	X8	Y8	Z8	X9	Y9	Z9	X10	Y10	Z10	X11	Y11	Z11	X12	Y12	Z12	X13	Y13	Z13	X14	Y14	Z14	X15	Y15	Z15	X16	Y16	Z16	X17	Y17	Z17	X18	Y18	Z18	X19	Y19	Z19	X20	Y20	Z20	X21	Y21	Z21	X22	Y22	Z22	X23	Y23	Z23	X24	Y24	Z24	X25	Y25	Z25	X26	Y26	Z26	X27	Y27	Z27	X28	Y28	Z28	X29	Y29	Z29	X30	Y30	Z30	X31	Y31	Z31	X32	Y32	Z32	X33	Y33	Z33	X34	Y34	Z34	X35	Y35	Z35	X36	Y36	Z36	X37	Y37	Z37	X38	Y38	Z38	X39	Y39	Z39	X40	Y40	Z40	X41	Y41	Z41	X42	Y42	Z42	X43	Y43	Z43	X44	Y44	Z44	X45	Y45	Z45	X46	Y46	Z46	X47	Y47	Z47	X48	Y48	Z48	X49	Y49	Z49	X50	Y50	Z50	X51	Y51	Z51	X52	Y52	Z52	X53	Y53	Z53	

257	2.56	103.4529800415039	1117.42626953125	1098.218627929688	29.7501335144043	1112.794677734375	983.7982177734375	56.60411834716797	1151.02001953125	1039.713623046875	241.3467559814453	1351.742309570312	924.0973510742188	17.05315971374512	1301.552124023438	1048.327880859375	39.45840835571289	1593.081665039062	1009.94580078125	206.5796051025391	1486.338134765625	937.1593017578125	32.15904235839844	1410.259765625	1116.691040039062	-12.82221984863281	1571.47021484375	920.7898559570312	36.11724853515625	1556.32568359375	822.5870971679688	-3.846086263656616	1422.949829101562	765.9397583007812	23.90012741088867	1204.07763671875	737.8189697265625	-10.44389724731445	1185.52783203125	817.7424926757812	172.7031707763672	967.610107421875	733.1138916015625	92.77410125732422	927.7939453125	740.2321166992188	54.06246948242188	1090.94482421875	726.0302124023438	227.4035949707031	781.2362670898438	737.9100341796875	132.0086669921875	858.8043823242188	726.3854370117188	196.4930267333984	883.036376953125	715.1730346679688	170.7317810058594	1577.838745117188	1146.735961914062	183.9204711914062	1506.682006835938	1212.986083984375	182.0686798095703	1214.029663085938	1248.55078125	133.5028686523438	1209.682250976562	1160.409790039062	297.8956298828125	962.8399658203125	1188.370727539062	243.0143432617188	952.5609741210938	1249.443725585938	207.2399749755859	1140.869384765625	1255.719116210938	306.3869018554688	766.453857421875	1177.630737304688	321.825927734375	853.8082275390625	1188.41552734375	273.4630126953125	851.45849609375	1242.871826171875	125.1225051879883	1766.042236328125	1059.877807617188	142.8055114746094	1828.621948242188	848.9019165039062	231.4716491699219	1849.0810546875	941.6524047851562	28.33451461791992	1748.421020507812	968.2642822265625	51.22441864013672	1019.804138183594	845.129638671875	278.1929626464844	1032.953979492188	1130.544067382812	311.66796875	1102.042114257812	1040.501953125	161.9188690185547	1086.394165039062	820.9492797851562	94.39759063720703	507.6908264160156	886.5975341796875	66.30303192138672	659.6674194335938	864.8914794921875	-227.1757507324219	116.7090225219727	1063.749389648438	-106.3908462524414	332.7626647949219	960.0192260742188	-17.6769962310791	36.3796272277832	1101.0361328125	-79.06929016113281	71.00891876220703	1134.995849609375	-131.1874237060547	42.91707229614258	1038.98681640625	-263.7406616210938	176.2210540771484	1126.780395507812	363.3444213867188	556.7276000976562	1033.748168945312	334.6741638183594	828.7163696289062	1090.588989257812	341.6181030273438	29.94063186645508	1062.357666015625	374.4747924804688	419.8257751464844	1048.96875	482.4136352539062	53.90694046020508	874.133056640625	412.0215454101562	43.41159057617188	879.1988525390625	457.1260070800781	41.87177658081055	992.3225708007812	266.1018371582031	32.26616668701172	1059.471801757812	
258	2.57	113.3850326538086	1118.489135742188	1095.895751953125	38.07233810424805	1113.09716796875	982.3948364257812	65.70994567871094	1151.787353515625	1037.8466796875	249.0231170654297	1352.4833984375	919.3731079101562	26.60218048095703	1302.373657226562	1046.785278320312	48.38092422485352	1593.836791992188	1008.153930664062	214.4391784667969	1487.062744140625	932.9564208984375	42.71693801879883	1411.105590820312	1115.11474609375	-5.135791778564453	1572.181274414062	919.7844848632812	42.370361328125	1557.300903320312	820.8445434570312	1.327117204666138	1424.081176757812	764.5641479492188	27.70782661437988	1204.946533203125	736.7827758789062	-6.098240375518799	1187.055297851562	817.1029052734375	172.7425384521484	965.8472900390625	732.108642578125	92.10309600830078	927.6085815429688	739.8936767578125	56.23180389404297	1091.4169921875	725.2081298828125	223.6995086669922	778.2830810546875	738.2068481445312	129.8965148925781	857.7685546875	726.3555908203125	194.8447570800781	880.5534057617188	714.7233276367188	181.6410827636719	1578.742553710938	1142.951904296875	195.790283203125	1507.7216796875	1209.077026367188	194.3427734375	1215.015258789062	1245.140991210938	144.84912109375	1210.52490234375	1158.245483398438	311.2293395996094	964.892578125	1182.520629882812	257.1634216308594	953.8399047851562	1244.143188476562	220.1394653320312	1141.902587890625	1251.878051757812	321.42626953125	768.6826171875	1170.571044921875	336.1571655273438	856.1089477539062	1181.713623046875	288.4132385253906	853.0134887695312	1236.675537109375	133.9823455810547	1766.671020507812	1057.217407226562	149.5327301025391	1829.703491210938	846.2330322265625	239.0123138427734	1850.06396484375	938.1558837890625	36.38112640380859	1749.009399414062	966.4496459960938	57.97062301635742	1019.628601074219	843.6176147460938	288.4247131347656	1034.378295898438	1126.160278320312	320.8217468261719	1103.0283203125	1035.3515625	168.2628326416016	1086.830078125	817.946044921875	109.2687072753906	506.9999084472656	877.6019897460938	78.49724578857422	659.15380859375	858.85107421875	-220.4344940185547	124.8456726074219	1061.602783203125	-93.9339599609375	337.10107421875	954.7374267578125	-15.31820583343506	36.01118850708008	1097.347045898438	-73.57259368896484	74.22859191894531	1131.780639648438	-128.740234375	44.79705047607422	1038.1923828125	-253.0831451416016	187.5084381103516	1123.865600585938	368.1448974609375	556.2412719726562	1032.638427734375	342.713623046875	829.1751098632812	1087.54443359375	341.7693786621094	29.92470359802246	1062.261352539062	378.0169677734375	419.249755859375	1048.441040039062	482.7690124511719	52.31399154663086	873.5897216796875	412.1294555664062	42.76420211791992	878.9932250976562	457.3741149902344	41.73040390014648	992.1995849609375	266.2044677734375	32.27978897094727	1059.527221679688	
259	2.58	122.8957595825195	1119.387939453125	1093.457885742188	46.10572814941406	1113.171752929688	980.8794555664062	74.52879333496094	1152.37451171875	1035.871459960938	256.5004577636719	1352.994018554688	914.6019897460938	36.01510620117188	1303.084228515625	1045.173217773438	57.29165649414062	1594.494750976562	1006.321838378906	222.154541015625	1487.564819335938	928.6714477539062	53.20325088500977	1411.890014648438	1113.552856445312	2.499306917190552	1572.77880859375	918.7872314453125	48.47252655029297	1558.016479492188	819.1044311523438	6.274140357971191	1424.917724609375	763.3604125976562	31.31839752197266	1205.55517578125	735.8758544921875	-1.872758984565735	1188.28857421875	816.6192016601562	172.7547149658203	964.06201171875	731.0895385742188	91.51967620849609	927.3269653320312	739.6184692382812	58.29038619995117	1091.6943359375	724.4915771484375	220.1399841308594	775.4515380859375	738.3193969726562	127.8913269042969	856.7377319335938	726.2991333007812	193.2301177978516	878.134033203125	714.1917724609375	192.6096343994141	1579.5	1139.033325195312	207.7524566650391	1508.611083984375	1205.023803710938	206.842041015625	1215.85107421875	1241.674194335938	156.4013977050781	1211.156127929688	1156.253051757812	324.6623229980469	966.8516845703125	1176.386352539062	271.5628051757812	955.0003051757812	1238.623413085938	233.28857421875	1142.794921875	1247.904052734375	336.6865234375	770.8681030273438	1163.14208984375	350.6589050292969	858.3634033203125	1174.6533203125	303.631103515625	854.4652099609375	1230.182373046875	142.8558654785156	1767.140747070312	1054.514892578125	156.1661224365234	1830.625244140625	843.5099487304688	246.4483337402344	1850.914916992188	934.6058959960938	44.43021011352539	1749.359008789062	964.6146850585938	64.57441711425781	1019.254821777344	841.9650268554688	298.2720031738281	1035.650756835938	1121.8212890625	329.6860961914062	1103.83056640625	1030.281860351562	174.4633941650391	1087.09765625	814.9530029296875	124.2434158325195	506.4789428710938	868.412109375	90.64847564697266	658.650390625	852.5528564453125	-212.5981903076172	133.2802734375	1059.278686523438	-80.90969848632812	341.4283447265625	949.287353515625	-11.9000825881958	35.76068496704102	1092.137084960938	-66.83709716796875	77.69834136962891	1127.563598632812	-125.3472213745117	47.65021514892578	1036.3779296875	-241.3084106445312	198.3979797363281	1121.102416992188	372.6973266601562	555.6951904296875	1031.887573242188	350.4283447265625	829.5392456054688	1084.716064453125	341.8682250976562	29.92628479003906	1062.181274414062	381.2879333496094	418.6471557617188	1048.260620117188	483.1339111328125	50.90951156616211	873.1722412109375	412.2474365234375	42.22131729125977	878.8060302734375	457.616943359375	41.59930038452148	992.1713256835938	266.2588806152344	32.27996063232422	1059.53857421875	
260	2.59	131.9745330810547	1120.130615234375	1090.892456054688	53.84403228759766	1113.068115234375	979.2310180664062	83.03458404541016	1152.80908203125	1033.77587890625	263.7786560058594	1353.314453125	909.8074951171875	45.26644897460938	1303.7060546875	1043.480590820312	66.16685485839844	1595.085083007812	1004.434326171875	229.7128295898438	1487.8828125	924.3221435546875	63.56173324584961	1412.636108398438	1111.97607421875	10.07317352294922	1573.297729492188	917.7730712890625	54.43514251708984	1558.495727539062	817.3521728515625	11.01701545715332	1425.475219726562	762.3323364257812	34.69464874267578	1205.9091796875	735.1273803710938	2.225550889968872	1189.247802734375	816.3338623046875	172.7459259033203	962.2800903320312	730.0564575195312	91.02702331542969	926.9532470703125	739.4503784179688	60.20822143554688	1091.780151367188	723.913818359375	216.7704620361328	772.770751953125	738.1854248046875	126.0108642578125	855.7212524414062	726.2299194335938	191.6520538330078	875.8124389648438	713.5538330078125	203.5756988525391	1580.124633789062	1134.992553710938	219.7393188476562	1509.350830078125	1200.827880859375	219.597412109375	1216.543823242188	1238.108154296875	168.1679840087891	1211.5771484375	1154.363159179688	338.1786193847656	968.6942138671875	1169.953125	286.2123107910156	956.0499877929688	1232.879516601562	246.7196655273438	1143.556274414062	1243.751831054688	352.070068359375	772.9752807617188	1155.392700195312	365.2748718261719	860.537109375	1167.24609375	319.078125	855.8175048828125	1223.41455078125	151.7453308105469	1767.487915039062	1051.761474609375	162.7058868408203	1831.406005859375	840.7298583984375	253.7892761230469	1851.658203125	930.9921264648438	52.48443222045898	1749.507568359375	962.7551879882812	71.07283782958984	1018.751831054688	840.14599609375	307.7184753417969	1036.783203125	1117.538452148438	338.2496643066406	1104.492553710938	1025.317749023438	180.5506591796875	1087.242797851562	811.9541625976562	139.2916412353516	506.1902465820312	859.1205444335938	102.7864151000977	658.225830078125	846.0353393554688	-203.5850677490234	141.8871154785156	1056.785278320312	-67.37712860107422	345.7107849121094	943.7479248046875	-7.299199104309082	35.69530487060547	1085.142456054688	-58.77557373046875	81.26325988769531	1122.137573242188	-120.8603439331055	51.55471038818359	1033.268798828125	-228.4126586914062	208.6188659667969	1118.611328125	377.0406494140625	555.1162719726562	1031.3955078125	357.8533325195312	829.8325805664062	1082.025756835938	341.9340209960938	29.92557144165039	1062.1337890625	384.3507995605469	418.0477600097656	1048.305297851562	483.4857788085938	49.71287536621094	872.8677978515625	412.3677673339844	41.79100036621094	878.6533203125	457.8533020019531	41.47773361206055	992.2247314453125	266.2893371582031	32.27142333984375	1059.540649414062	
